<svg width="34" height="36" fill="none" xmlns="http://www.w3.org/2000/svg"><path d="m16.84.84-5.2-.16c.04.72-.04 1.64-.12 2.44-.44 3.96-1.16 9.84-1.16 15.08 0 5.88 1.16 11.8 2.36 15.4l4.6-1.36C16 28.2 14.84 23.72 14.84 17.4c0-4.96.68-10.72 1.44-14.44.16-.64.32-1.36.56-2.12Zm-7.16 4.4c-2.44 0-5.92-.32-7.36-.52l.12 4.6c1.88.08 5 .28 7.12.28C15.6 9.6 24 9 29.48 8l-.04-4.6C23.32 4.88 17.28 5.24 9.68 5.24Zm17.28 5.88-4.92-1.2c-.04.88-.32 2.6-.6 3.44-1.6 5.52-4.32 9.08-7.24 11.76-2.44 2.28-5.12 3.6-7 3.6-1.32 0-1.84-.68-1.84-2 0-2.68 2.84-6.52 6.84-8.4 1.96-.88 4.84-1.92 8.48-1.92 5.4 0 8.32 2.88 8.32 6.28 0 3.96-3.16 7.84-10.88 8.68l2.68 4.24c9.8-1.52 13.16-7 13.16-12.68 0-6.24-5.52-10.56-13-10.56-3 0-6.28.6-8.92 1.56C5.68 16.24.64 22.12.64 27.76c0 4.08 2.44 5.84 5.36 5.84 3.48 0 6.96-1.76 9.56-3.68 3.8-2.8 7.92-8.2 10.2-15.4.28-.84.88-2.68 1.2-3.4Z" fill="#38BDF8"/></svg>