<svg width="34" height="36" viewBox="0 0 34 36" fill="none" xmlns="http://www.w3.org/2000/svg">
<path d="M16.84 0.839999L11.64 0.679999C11.68 1.4 11.6 2.32 11.52 3.12C11.08 7.08 10.36 12.96 10.36 18.2C10.36 24.08 11.52 30 12.72 33.6L17.32 32.24C16 28.2 14.84 23.72 14.84 17.4C14.84 12.44 15.52 6.68 16.28 2.96C16.44 2.32 16.6 1.6 16.84 0.839999ZM9.68 5.24C7.24 5.24 3.76 4.92 2.32 4.72L2.44 9.32C4.32 9.4 7.44 9.6 9.56 9.6C15.6 9.6 24 9 29.48 8L29.44 3.4C23.32 4.88 17.28 5.24 9.68 5.24ZM26.96 11.12L22.04 9.92C22 10.8 21.72 12.52 21.44 13.36C19.84 18.88 17.12 22.44 14.2 25.12C11.76 27.4 9.08 28.72 7.2 28.72C5.88 28.72 5.36 28.04 5.36 26.72C5.36 24.04 8.2 20.2 12.2 18.32C14.16 17.44 17.04 16.4 20.68 16.4C26.08 16.4 29 19.28 29 22.68C29 26.64 25.84 30.52 18.12 31.36L20.8 35.6C30.6 34.08 33.96 28.6 33.96 22.92C33.96 16.68 28.44 12.36 20.96 12.36C17.96 12.36 14.68 12.96 12.04 13.92C5.68 16.24 0.64 22.12 0.64 27.76C0.64 31.84 3.08 33.6 6 33.6C9.48 33.6 12.96 31.84 15.56 29.92C19.36 27.12 23.48 21.72 25.76 14.52C26.04 13.68 26.64 11.84 26.96 11.12Z" fill="#38BDF8"></path>
</svg>
